<svg id="Layer_1" data-name="Layer 1" xmlns="http://www.w3.org/2000/svg" viewBox="0 0 1080 1080"><defs><style>.cls-1,.cls-2{fill:none;stroke:#474849;stroke-miterlimit:10;}.cls-1{stroke-width:36.03px;}.cls-2{stroke-width:7.21px;}</style></defs><title>Icon</title><circle class="cls-1" cx="538.4" cy="540.12" r="415.31"/><line class="cls-2" x1="540" y1="125.62" x2="540" y2="-0.5"/><line class="cls-2" x1="833.67" y1="246.33" x2="922.19" y2="157.81"/><line class="cls-2" x1="954.38" y1="540" x2="1080.5" y2="540"/><line class="cls-2" x1="833.67" y1="833.68" x2="922.19" y2="922.2"/><line class="cls-2" x1="538.2" y1="956.19" x2="537.35" y2="1080.5"/><line class="cls-2" x1="246.32" y1="833.68" x2="155.94" y2="920.32"/><line class="cls-2" x1="123.81" y1="540" x2="-0.5" y2="537.36"/><line class="cls-2" x1="246.32" y1="244.53" x2="159.68" y2="155.95"/><line class="cls-2" x1="373.86" y1="164.66" x2="325.6" y2="48.15"/><line class="cls-2" x1="691.37" y1="163.8" x2="739.28" y2="48.15"/><line class="cls-2" x1="915.28" y1="388.93" x2="1031.8" y2="340.67"/><line class="cls-2" x1="916.14" y1="706.44" x2="1031.8" y2="754.35"/><line class="cls-2" x1="690.04" y1="932.7" x2="736.84" y2="1047.87"/><line class="cls-2" x1="373.5" y1="931.21" x2="323.16" y2="1045.85"/><line class="cls-2" x1="147.93" y1="706.77" x2="32.07" y2="751.9"/><line class="cls-2" x1="148.05" y1="386.91" x2="34.1" y2="338.23"/></svg>